<svg xmlns="http://www.w3.org/2000/svg" xmlns:xlink="http://www.w3.org/1999/xlink" width="1037" zoomAndPan="magnify" viewBox="0 0 777.75 126.749998" height="169" preserveAspectRatio="xMidYMid meet" version="1.0"><defs><g/></defs><g fill="#302e2b" fill-opacity="1"><g transform="translate(28.983583, 93.437879)"><g><path d="M 34.375 -69.875 C 38.34375 -69.875 42.03125 -69.382812 45.4375 -68.40625 C 48.851562 -67.4375 51.84375 -66.007812 54.40625 -64.125 C 56.976562 -62.238281 58.988281 -59.910156 60.4375 -57.140625 C 61.882812 -54.378906 62.609375 -51.210938 62.609375 -47.640625 C 62.609375 -45.234375 62.222656 -42.925781 61.453125 -40.71875 C 60.691406 -38.507812 59.410156 -36.476562 57.609375 -34.625 C 55.804688 -32.769531 53.359375 -31.160156 50.265625 -29.796875 C 47.179688 -28.429688 43.320312 -27.363281 38.6875 -26.59375 C 34.0625 -25.832031 28.53125 -25.453125 22.09375 -25.453125 L 11.75 -25.453125 L 11.75 -7.453125 C 11.75 -5.703125 11.941406 -4.332031 12.328125 -3.34375 C 12.722656 -2.351562 13.164062 -1.613281 13.65625 -1.125 C 14.144531 -0.632812 14.570312 -0.320312 14.9375 -0.1875 C 15.3125 -0.0625 15.5 0 15.5 0 L 2 0 C 2 0 2.1875 -0.0703125 2.5625 -0.21875 C 2.9375 -0.363281 3.375 -0.671875 3.875 -1.140625 C 4.375 -1.617188 4.8125 -2.359375 5.1875 -3.359375 C 5.5625 -4.367188 5.75 -5.734375 5.75 -7.453125 L 5.75 -62.453125 C 5.75 -64.179688 5.5625 -65.539062 5.1875 -66.53125 C 4.8125 -67.519531 4.375 -68.257812 3.875 -68.75 C 3.375 -69.238281 2.9375 -69.554688 2.5625 -69.703125 C 2.1875 -69.847656 2 -69.921875 2 -69.921875 Z M 22.09375 -28.140625 C 28.457031 -28.203125 33.804688 -28.757812 38.140625 -29.8125 C 42.484375 -30.875 45.972656 -32.304688 48.609375 -34.109375 C 51.242188 -35.910156 53.144531 -38 54.3125 -40.375 C 55.488281 -42.75 56.078125 -45.269531 56.078125 -47.9375 C 56.078125 -50.664062 55.539062 -53.179688 54.46875 -55.484375 C 53.394531 -57.796875 51.875 -59.796875 49.90625 -61.484375 C 47.9375 -63.171875 45.632812 -64.484375 43 -65.421875 C 40.375 -66.367188 37.5 -66.84375 34.375 -66.84375 L 14.328125 -66.75 C 13.554688 -66.75 12.984375 -66.519531 12.609375 -66.0625 C 12.234375 -65.613281 11.992188 -65.054688 11.890625 -64.390625 C 11.796875 -63.722656 11.75 -63.0625 11.75 -62.40625 L 11.75 -28.140625 Z M 22.09375 -28.140625 "/></g></g></g><g fill="#302e2b" fill-opacity="1"><g transform="translate(93.592287, 93.437879)"><g><path d="M 56.125 0 C 56.125 0 56.285156 -0.0703125 56.609375 -0.21875 C 56.929688 -0.363281 57.238281 -0.671875 57.53125 -1.140625 C 57.820312 -1.617188 57.953125 -2.359375 57.921875 -3.359375 C 57.890625 -4.367188 57.535156 -5.734375 56.859375 -7.453125 L 49.25 -26.53125 L 19.15625 -26.53125 L 11.5625 -7.453125 C 10.875 -5.734375 10.515625 -4.367188 10.484375 -3.359375 C 10.453125 -2.359375 10.582031 -1.617188 10.875 -1.140625 C 11.164062 -0.671875 11.472656 -0.363281 11.796875 -0.21875 C 12.117188 -0.0703125 12.28125 0 12.28125 0 L 2 0 C 2 0 2.207031 -0.0625 2.625 -0.1875 C 3.050781 -0.320312 3.601562 -0.632812 4.28125 -1.125 C 4.96875 -1.613281 5.703125 -2.351562 6.484375 -3.34375 C 7.265625 -4.332031 8.015625 -5.703125 8.734375 -7.453125 L 33.59375 -69.921875 L 38.078125 -69.921875 L 62.90625 -7.453125 C 63.613281 -5.703125 64.359375 -4.332031 65.140625 -3.34375 C 65.921875 -2.351562 66.648438 -1.613281 67.328125 -1.125 C 68.015625 -0.632812 68.566406 -0.320312 68.984375 -0.1875 C 69.410156 -0.0625 69.625 0 69.625 0 Z M 19.890625 -28.328125 L 48.515625 -28.328125 C 48.515625 -28.328125 48.316406 -28.820312 47.921875 -29.8125 C 47.535156 -30.800781 47 -32.140625 46.3125 -33.828125 C 45.632812 -35.523438 44.875 -37.429688 44.03125 -39.546875 C 43.1875 -41.660156 42.316406 -43.835938 41.421875 -46.078125 C 40.523438 -48.316406 39.644531 -50.5 38.78125 -52.625 C 37.925781 -54.757812 37.15625 -56.6875 36.46875 -58.40625 C 35.789062 -60.132812 35.238281 -61.519531 34.8125 -62.5625 C 34.394531 -63.601562 34.164062 -64.15625 34.125 -64.21875 C 34.09375 -64.15625 33.875 -63.601562 33.46875 -62.5625 C 33.0625 -61.519531 32.515625 -60.132812 31.828125 -58.40625 C 31.148438 -56.6875 30.390625 -54.757812 29.546875 -52.625 C 28.703125 -50.5 27.832031 -48.316406 26.9375 -46.078125 C 26.039062 -43.835938 25.175781 -41.660156 24.34375 -39.546875 C 23.519531 -37.429688 22.765625 -35.523438 22.078125 -33.828125 C 21.398438 -32.140625 20.863281 -30.800781 20.46875 -29.8125 C 20.082031 -28.820312 19.890625 -28.328125 19.890625 -28.328125 Z M 19.890625 -28.328125 "/></g></g></g><g fill="#302e2b" fill-opacity="1"><g transform="translate(165.17385, 93.437879)"><g><path d="M 50.703125 -7.453125 C 51.878906 -5.734375 52.984375 -4.367188 54.015625 -3.359375 C 55.054688 -2.359375 55.984375 -1.617188 56.796875 -1.140625 C 57.617188 -0.671875 58.265625 -0.363281 58.734375 -0.21875 C 59.203125 -0.0703125 59.4375 0 59.4375 0 L 45.9375 0 C 45.9375 0 46.070312 -0.0625 46.34375 -0.1875 C 46.625 -0.320312 46.851562 -0.632812 47.03125 -1.125 C 47.207031 -1.613281 47.148438 -2.351562 46.859375 -3.34375 C 46.566406 -4.332031 45.832031 -5.703125 44.65625 -7.453125 L 32.375 -25.84375 C 30.8125 -25.707031 29.175781 -25.609375 27.46875 -25.546875 C 25.769531 -25.484375 23.976562 -25.453125 22.09375 -25.453125 L 11.75 -25.453125 L 11.75 -7.453125 C 11.75 -5.703125 11.941406 -4.332031 12.328125 -3.34375 C 12.722656 -2.351562 13.164062 -1.613281 13.65625 -1.125 C 14.144531 -0.632812 14.570312 -0.320312 14.9375 -0.1875 C 15.3125 -0.0625 15.5 0 15.5 0 L 2 0 C 2 0 2.1875 -0.0703125 2.5625 -0.21875 C 2.9375 -0.363281 3.375 -0.671875 3.875 -1.140625 C 4.375 -1.617188 4.8125 -2.359375 5.1875 -3.359375 C 5.5625 -4.367188 5.75 -5.734375 5.75 -7.453125 L 5.75 -62.453125 C 5.75 -64.179688 5.5625 -65.539062 5.1875 -66.53125 C 4.8125 -67.519531 4.375 -68.257812 3.875 -68.75 C 3.375 -69.238281 2.9375 -69.554688 2.5625 -69.703125 C 2.1875 -69.847656 2 -69.921875 2 -69.921875 L 34.375 -69.875 C 38.34375 -69.875 42.046875 -69.382812 45.484375 -68.40625 C 48.929688 -67.4375 51.945312 -66.007812 54.53125 -64.125 C 57.113281 -62.238281 59.132812 -59.910156 60.59375 -57.140625 C 62.0625 -54.378906 62.796875 -51.210938 62.796875 -47.640625 C 62.796875 -45.203125 62.394531 -42.867188 61.59375 -40.640625 C 60.800781 -38.410156 59.472656 -36.359375 57.609375 -34.484375 C 55.742188 -32.617188 53.207031 -30.992188 50 -29.609375 C 46.800781 -28.234375 42.796875 -27.1875 37.984375 -26.46875 Z M 22.09375 -28.140625 C 28.457031 -28.203125 33.804688 -28.757812 38.140625 -29.8125 C 42.484375 -30.875 45.972656 -32.304688 48.609375 -34.109375 C 51.242188 -35.910156 53.144531 -38 54.3125 -40.375 C 55.488281 -42.75 56.078125 -45.269531 56.078125 -47.9375 C 56.078125 -50.664062 55.539062 -53.179688 54.46875 -55.484375 C 53.394531 -57.796875 51.875 -59.796875 49.90625 -61.484375 C 47.9375 -63.171875 45.632812 -64.484375 43 -65.421875 C 40.375 -66.367188 37.5 -66.84375 34.375 -66.84375 L 15.171875 -66.84375 C 14.160156 -66.84375 13.410156 -66.609375 12.921875 -66.140625 C 12.429688 -65.671875 12.113281 -65.09375 11.96875 -64.40625 C 11.820312 -63.726562 11.75 -63.0625 11.75 -62.40625 L 11.75 -28.140625 Z M 22.09375 -28.140625 "/></g></g></g><g fill="#302e2b" fill-opacity="1"><g transform="translate(229.9776, 93.437879)"><g><path d="M 56.125 0 C 56.125 0 56.285156 -0.0703125 56.609375 -0.21875 C 56.929688 -0.363281 57.238281 -0.671875 57.53125 -1.140625 C 57.820312 -1.617188 57.953125 -2.359375 57.921875 -3.359375 C 57.890625 -4.367188 57.535156 -5.734375 56.859375 -7.453125 L 49.25 -26.53125 L 19.15625 -26.53125 L 11.5625 -7.453125 C 10.875 -5.734375 10.515625 -4.367188 10.484375 -3.359375 C 10.453125 -2.359375 10.582031 -1.617188 10.875 -1.140625 C 11.164062 -0.671875 11.472656 -0.363281 11.796875 -0.21875 C 12.117188 -0.0703125 12.28125 0 12.28125 0 L 2 0 C 2 0 2.207031 -0.0625 2.625 -0.1875 C 3.050781 -0.320312 3.601562 -0.632812 4.28125 -1.125 C 4.96875 -1.613281 5.703125 -2.351562 6.484375 -3.34375 C 7.265625 -4.332031 8.015625 -5.703125 8.734375 -7.453125 L 33.59375 -69.921875 L 38.078125 -69.921875 L 62.90625 -7.453125 C 63.613281 -5.703125 64.359375 -4.332031 65.140625 -3.34375 C 65.921875 -2.351562 66.648438 -1.613281 67.328125 -1.125 C 68.015625 -0.632812 68.566406 -0.320312 68.984375 -0.1875 C 69.410156 -0.0625 69.625 0 69.625 0 Z M 19.890625 -28.328125 L 48.515625 -28.328125 C 48.515625 -28.328125 48.316406 -28.820312 47.921875 -29.8125 C 47.535156 -30.800781 47 -32.140625 46.3125 -33.828125 C 45.632812 -35.523438 44.875 -37.429688 44.03125 -39.546875 C 43.1875 -41.660156 42.316406 -43.835938 41.421875 -46.078125 C 40.523438 -48.316406 39.644531 -50.5 38.78125 -52.625 C 37.925781 -54.757812 37.15625 -56.6875 36.46875 -58.40625 C 35.789062 -60.132812 35.238281 -61.519531 34.8125 -62.5625 C 34.394531 -63.601562 34.164062 -64.15625 34.125 -64.21875 C 34.09375 -64.15625 33.875 -63.601562 33.46875 -62.5625 C 33.0625 -61.519531 32.515625 -60.132812 31.828125 -58.40625 C 31.148438 -56.6875 30.390625 -54.757812 29.546875 -52.625 C 28.703125 -50.5 27.832031 -48.316406 26.9375 -46.078125 C 26.039062 -43.835938 25.175781 -41.660156 24.34375 -39.546875 C 23.519531 -37.429688 22.765625 -35.523438 22.078125 -33.828125 C 21.398438 -32.140625 20.863281 -30.800781 20.46875 -29.8125 C 20.082031 -28.820312 19.890625 -28.328125 19.890625 -28.328125 Z M 19.890625 -28.328125 "/></g></g></g><g fill="#302e2b" fill-opacity="1"><g transform="translate(301.559163, 93.437879)"><g/></g></g><g fill="#302e2b" fill-opacity="1"><g transform="translate(326.622452, 93.437879)"><g><path d="M 51.09375 0 L 2 0 C 2 0 2.1875 -0.0703125 2.5625 -0.21875 C 2.9375 -0.363281 3.363281 -0.671875 3.84375 -1.140625 C 4.332031 -1.617188 4.765625 -2.359375 5.140625 -3.359375 C 5.515625 -4.367188 5.703125 -5.734375 5.703125 -7.453125 L 5.703125 -62.453125 C 5.703125 -64.179688 5.515625 -65.539062 5.140625 -66.53125 C 4.765625 -67.519531 4.332031 -68.257812 3.84375 -68.75 C 3.363281 -69.238281 2.9375 -69.554688 2.5625 -69.703125 C 2.1875 -69.847656 2 -69.921875 2 -69.921875 L 15.5 -69.921875 C 15.5 -69.921875 15.3125 -69.851562 14.9375 -69.71875 C 14.570312 -69.59375 14.144531 -69.285156 13.65625 -68.796875 C 13.164062 -68.304688 12.722656 -67.554688 12.328125 -66.546875 C 11.941406 -65.546875 11.75 -64.164062 11.75 -62.40625 L 11.75 -7.453125 C 11.75 -6.804688 11.78125 -6.140625 11.84375 -5.453125 C 11.914062 -4.773438 12.097656 -4.195312 12.390625 -3.71875 C 12.679688 -3.25 13.148438 -3.015625 13.796875 -3.015625 C 13.796875 -3.015625 14.363281 -3.015625 15.5 -3.015625 C 16.644531 -3.015625 18.472656 -3.015625 20.984375 -3.015625 C 23.503906 -3.015625 26.878906 -3.015625 31.109375 -3.015625 C 34.679688 -3.015625 37.660156 -3.234375 40.046875 -3.671875 C 42.441406 -4.117188 44.378906 -4.664062 45.859375 -5.3125 C 47.335938 -5.96875 48.445312 -6.628906 49.1875 -7.296875 C 49.9375 -7.960938 50.441406 -8.515625 50.703125 -8.953125 C 50.960938 -9.390625 51.09375 -9.609375 51.09375 -9.609375 Z M 51.09375 0 "/></g></g></g><g fill="#302e2b" fill-opacity="1"><g transform="translate(379.772239, 93.437879)"><g><path d="M 56.125 0 C 56.125 0 56.285156 -0.0703125 56.609375 -0.21875 C 56.929688 -0.363281 57.238281 -0.671875 57.53125 -1.140625 C 57.820312 -1.617188 57.953125 -2.359375 57.921875 -3.359375 C 57.890625 -4.367188 57.535156 -5.734375 56.859375 -7.453125 L 49.25 -26.53125 L 19.15625 -26.53125 L 11.5625 -7.453125 C 10.875 -5.734375 10.515625 -4.367188 10.484375 -3.359375 C 10.453125 -2.359375 10.582031 -1.617188 10.875 -1.140625 C 11.164062 -0.671875 11.472656 -0.363281 11.796875 -0.21875 C 12.117188 -0.0703125 12.28125 0 12.28125 0 L 2 0 C 2 0 2.207031 -0.0625 2.625 -0.1875 C 3.050781 -0.320312 3.601562 -0.632812 4.28125 -1.125 C 4.96875 -1.613281 5.703125 -2.351562 6.484375 -3.34375 C 7.265625 -4.332031 8.015625 -5.703125 8.734375 -7.453125 L 33.59375 -69.921875 L 38.078125 -69.921875 L 62.90625 -7.453125 C 63.613281 -5.703125 64.359375 -4.332031 65.140625 -3.34375 C 65.921875 -2.351562 66.648438 -1.613281 67.328125 -1.125 C 68.015625 -0.632812 68.566406 -0.320312 68.984375 -0.1875 C 69.410156 -0.0625 69.625 0 69.625 0 Z M 19.890625 -28.328125 L 48.515625 -28.328125 C 48.515625 -28.328125 48.316406 -28.820312 47.921875 -29.8125 C 47.535156 -30.800781 47 -32.140625 46.3125 -33.828125 C 45.632812 -35.523438 44.875 -37.429688 44.03125 -39.546875 C 43.1875 -41.660156 42.316406 -43.835938 41.421875 -46.078125 C 40.523438 -48.316406 39.644531 -50.5 38.78125 -52.625 C 37.925781 -54.757812 37.15625 -56.6875 36.46875 -58.40625 C 35.789062 -60.132812 35.238281 -61.519531 34.8125 -62.5625 C 34.394531 -63.601562 34.164062 -64.15625 34.125 -64.21875 C 34.09375 -64.15625 33.875 -63.601562 33.46875 -62.5625 C 33.0625 -61.519531 32.515625 -60.132812 31.828125 -58.40625 C 31.148438 -56.6875 30.390625 -54.757812 29.546875 -52.625 C 28.703125 -50.5 27.832031 -48.316406 26.9375 -46.078125 C 26.039062 -43.835938 25.175781 -41.660156 24.34375 -39.546875 C 23.519531 -37.429688 22.765625 -35.523438 22.078125 -33.828125 C 21.398438 -32.140625 20.863281 -30.800781 20.46875 -29.8125 C 20.082031 -28.820312 19.890625 -28.328125 19.890625 -28.328125 Z M 19.890625 -28.328125 "/></g></g></g><g fill="#302e2b" fill-opacity="1"><g transform="translate(451.353781, 93.437879)"><g/></g></g><g fill="#302e2b" fill-opacity="1"><g transform="translate(476.417069, 93.437879)"><g><path d="M 60.359375 -16.921875 C 60.265625 -15.753906 59.832031 -14.429688 59.0625 -12.953125 C 58.300781 -11.472656 57.238281 -9.992188 55.875 -8.515625 C 54.507812 -7.035156 52.867188 -5.660156 50.953125 -4.390625 C 49.035156 -3.117188 46.863281 -2.097656 44.4375 -1.328125 C 42.019531 -0.566406 39.363281 -0.1875 36.46875 -0.1875 C 32.664062 -0.1875 29.039062 -0.769531 25.59375 -1.9375 C 22.15625 -3.113281 18.992188 -4.773438 16.109375 -6.921875 C 13.234375 -9.066406 10.738281 -11.59375 8.625 -14.5 C 6.519531 -17.414062 4.890625 -20.609375 3.734375 -24.078125 C 2.578125 -27.554688 2 -31.21875 2 -35.0625 C 2 -38.925781 2.578125 -42.597656 3.734375 -46.078125 C 4.890625 -49.554688 6.519531 -52.75 8.625 -55.65625 C 10.738281 -58.5625 13.234375 -61.078125 16.109375 -63.203125 C 18.992188 -65.335938 22.15625 -66.988281 25.59375 -68.15625 C 29.039062 -69.332031 32.664062 -69.921875 36.46875 -69.921875 C 39.425781 -69.921875 42.097656 -69.632812 44.484375 -69.0625 C 46.878906 -68.5 49.007812 -67.773438 50.875 -66.890625 C 52.75 -66.015625 54.398438 -65.101562 55.828125 -64.15625 C 57.253906 -63.21875 58.488281 -62.367188 59.53125 -61.609375 C 60.570312 -60.847656 61.46875 -60.300781 62.21875 -59.96875 L 54.515625 -53.203125 C 54.835938 -55.015625 54.632812 -56.75 53.90625 -58.40625 C 53.175781 -60.070312 51.988281 -61.546875 50.34375 -62.828125 C 48.695312 -64.109375 46.660156 -65.113281 44.234375 -65.84375 C 41.816406 -66.582031 39.082031 -66.953125 36.03125 -66.953125 C 32.976562 -66.953125 30.066406 -66.414062 27.296875 -65.34375 C 24.535156 -64.269531 22 -62.753906 19.6875 -60.796875 C 17.382812 -58.847656 15.378906 -56.550781 13.671875 -53.90625 C 11.960938 -51.257812 10.644531 -48.347656 9.71875 -45.171875 C 8.800781 -42.003906 8.34375 -38.664062 8.34375 -35.15625 C 8.34375 -31.644531 8.800781 -28.300781 9.71875 -25.125 C 10.644531 -21.957031 11.960938 -19.050781 13.671875 -16.40625 C 15.378906 -13.757812 17.382812 -11.46875 19.6875 -9.53125 C 22 -7.59375 24.535156 -6.085938 27.296875 -5.015625 C 30.066406 -3.941406 32.976562 -3.40625 36.03125 -3.40625 C 39.082031 -3.40625 41.835938 -3.78125 44.296875 -4.53125 C 46.753906 -5.28125 48.925781 -6.238281 50.8125 -7.40625 C 52.695312 -8.582031 54.296875 -9.800781 55.609375 -11.0625 C 56.921875 -12.332031 57.972656 -13.492188 58.765625 -14.546875 C 59.566406 -15.609375 60.097656 -16.398438 60.359375 -16.921875 Z M 60.359375 -16.921875 "/></g></g></g><g fill="#302e2b" fill-opacity="1"><g transform="translate(540.635695, 93.437879)"><g><path d="M 56.125 0 C 56.125 0 56.285156 -0.0703125 56.609375 -0.21875 C 56.929688 -0.363281 57.238281 -0.671875 57.53125 -1.140625 C 57.820312 -1.617188 57.953125 -2.359375 57.921875 -3.359375 C 57.890625 -4.367188 57.535156 -5.734375 56.859375 -7.453125 L 49.25 -26.53125 L 19.15625 -26.53125 L 11.5625 -7.453125 C 10.875 -5.734375 10.515625 -4.367188 10.484375 -3.359375 C 10.453125 -2.359375 10.582031 -1.617188 10.875 -1.140625 C 11.164062 -0.671875 11.472656 -0.363281 11.796875 -0.21875 C 12.117188 -0.0703125 12.28125 0 12.28125 0 L 2 0 C 2 0 2.207031 -0.0625 2.625 -0.1875 C 3.050781 -0.320312 3.601562 -0.632812 4.28125 -1.125 C 4.96875 -1.613281 5.703125 -2.351562 6.484375 -3.34375 C 7.265625 -4.332031 8.015625 -5.703125 8.734375 -7.453125 L 33.59375 -69.921875 L 38.078125 -69.921875 L 62.90625 -7.453125 C 63.613281 -5.703125 64.359375 -4.332031 65.140625 -3.34375 C 65.921875 -2.351562 66.648438 -1.613281 67.328125 -1.125 C 68.015625 -0.632812 68.566406 -0.320312 68.984375 -0.1875 C 69.410156 -0.0625 69.625 0 69.625 0 Z M 19.890625 -28.328125 L 48.515625 -28.328125 C 48.515625 -28.328125 48.316406 -28.820312 47.921875 -29.8125 C 47.535156 -30.800781 47 -32.140625 46.3125 -33.828125 C 45.632812 -35.523438 44.875 -37.429688 44.03125 -39.546875 C 43.1875 -41.660156 42.316406 -43.835938 41.421875 -46.078125 C 40.523438 -48.316406 39.644531 -50.5 38.78125 -52.625 C 37.925781 -54.757812 37.15625 -56.6875 36.46875 -58.40625 C 35.789062 -60.132812 35.238281 -61.519531 34.8125 -62.5625 C 34.394531 -63.601562 34.164062 -64.15625 34.125 -64.21875 C 34.09375 -64.15625 33.875 -63.601562 33.46875 -62.5625 C 33.0625 -61.519531 32.515625 -60.132812 31.828125 -58.40625 C 31.148438 -56.6875 30.390625 -54.757812 29.546875 -52.625 C 28.703125 -50.5 27.832031 -48.316406 26.9375 -46.078125 C 26.039062 -43.835938 25.175781 -41.660156 24.34375 -39.546875 C 23.519531 -37.429688 22.765625 -35.523438 22.078125 -33.828125 C 21.398438 -32.140625 20.863281 -30.800781 20.46875 -29.8125 C 20.082031 -28.820312 19.890625 -28.328125 19.890625 -28.328125 Z M 19.890625 -28.328125 "/></g></g></g><g fill="#302e2b" fill-opacity="1"><g transform="translate(612.217237, 93.437879)"><g><path d="M 54.609375 -19.5 C 54.671875 -21.550781 54.171875 -23.316406 53.109375 -24.796875 C 52.054688 -26.273438 50.585938 -27.554688 48.703125 -28.640625 C 46.816406 -29.734375 44.644531 -30.691406 42.1875 -31.515625 C 39.738281 -32.347656 37.148438 -33.128906 34.421875 -33.859375 C 31.691406 -34.585938 28.960938 -35.332031 26.234375 -36.09375 C 23.503906 -36.863281 20.921875 -37.71875 18.484375 -38.65625 C 16.046875 -39.601562 13.875 -40.710938 11.96875 -41.984375 C 10.070312 -43.253906 8.601562 -44.75 7.5625 -46.46875 C 6.519531 -48.1875 6.046875 -50.234375 6.140625 -52.609375 C 6.273438 -55.335938 7.039062 -57.773438 8.4375 -59.921875 C 9.832031 -62.066406 11.707031 -63.878906 14.0625 -65.359375 C 16.425781 -66.835938 19.148438 -67.96875 22.234375 -68.75 C 25.316406 -69.53125 28.597656 -69.921875 32.078125 -69.921875 C 34.878906 -69.921875 37.5 -69.691406 39.9375 -69.234375 C 42.375 -68.785156 44.582031 -68.226562 46.5625 -67.5625 C 48.550781 -66.894531 50.257812 -66.226562 51.6875 -65.5625 C 53.113281 -64.894531 54.207031 -64.332031 54.96875 -63.875 C 55.738281 -63.414062 56.125 -63.1875 56.125 -63.1875 L 50.5625 -56.703125 C 50.5625 -56.703125 50.398438 -57.066406 50.078125 -57.796875 C 49.753906 -58.535156 49.203125 -59.441406 48.421875 -60.515625 C 47.640625 -61.585938 46.539062 -62.648438 45.125 -63.703125 C 43.707031 -64.753906 41.925781 -65.644531 39.78125 -66.375 C 37.632812 -67.113281 35.035156 -67.484375 31.984375 -67.484375 C 25.578125 -67.484375 20.617188 -66.210938 17.109375 -63.671875 C 13.597656 -61.140625 11.765625 -57.695312 11.609375 -53.34375 C 11.535156 -51.457031 12.046875 -49.816406 13.140625 -48.421875 C 14.234375 -47.023438 15.757812 -45.804688 17.71875 -44.765625 C 19.6875 -43.722656 21.9375 -42.785156 24.46875 -41.953125 C 27.007812 -41.128906 29.691406 -40.34375 32.515625 -39.59375 C 35.347656 -38.84375 38.175781 -38.050781 41 -37.21875 C 43.832031 -36.394531 46.515625 -35.46875 49.046875 -34.4375 C 51.585938 -33.414062 53.832031 -32.226562 55.78125 -30.875 C 57.726562 -29.53125 59.238281 -27.929688 60.3125 -26.078125 C 61.382812 -24.234375 61.875 -22.070312 61.78125 -19.59375 C 61.71875 -17.90625 61.382812 -16.160156 60.78125 -14.359375 C 60.175781 -12.554688 59.179688 -10.800781 57.796875 -9.09375 C 56.421875 -7.382812 54.578125 -5.847656 52.265625 -4.484375 C 49.960938 -3.117188 47.0625 -2.03125 43.5625 -1.21875 C 40.070312 -0.40625 35.90625 0 31.0625 0 C 27.414062 0 24.160156 -0.410156 21.296875 -1.234375 C 18.441406 -2.066406 15.941406 -3.132812 13.796875 -4.4375 C 11.648438 -5.738281 9.820312 -7.117188 8.3125 -8.578125 C 6.800781 -10.046875 5.582031 -11.425781 4.65625 -12.71875 C 3.726562 -14.019531 3.050781 -15.082031 2.625 -15.90625 C 2.207031 -16.738281 2 -17.15625 2 -17.15625 L 9.453125 -22.671875 C 9.453125 -22.671875 9.597656 -22.195312 9.890625 -21.25 C 10.191406 -20.3125 10.664062 -19.09375 11.3125 -17.59375 C 11.957031 -16.101562 12.832031 -14.519531 13.9375 -12.84375 C 15.050781 -11.175781 16.410156 -9.59375 18.015625 -8.09375 C 19.628906 -6.59375 21.523438 -5.367188 23.703125 -4.421875 C 25.878906 -3.484375 28.378906 -3.015625 31.203125 -3.015625 C 34.617188 -3.015625 37.601562 -3.375 40.15625 -4.09375 C 42.707031 -4.8125 44.890625 -5.753906 46.703125 -6.921875 C 48.523438 -8.085938 50.003906 -9.394531 51.140625 -10.84375 C 52.285156 -12.289062 53.132812 -13.769531 53.6875 -15.28125 C 54.238281 -16.789062 54.546875 -18.195312 54.609375 -19.5 Z M 54.609375 -19.5 "/></g></g></g><g fill="#302e2b" fill-opacity="1"><g transform="translate(676.923464, 93.437879)"><g><path d="M 56.125 0 C 56.125 0 56.285156 -0.0703125 56.609375 -0.21875 C 56.929688 -0.363281 57.238281 -0.671875 57.53125 -1.140625 C 57.820312 -1.617188 57.953125 -2.359375 57.921875 -3.359375 C 57.890625 -4.367188 57.535156 -5.734375 56.859375 -7.453125 L 49.25 -26.53125 L 19.15625 -26.53125 L 11.5625 -7.453125 C 10.875 -5.734375 10.515625 -4.367188 10.484375 -3.359375 C 10.453125 -2.359375 10.582031 -1.617188 10.875 -1.140625 C 11.164062 -0.671875 11.472656 -0.363281 11.796875 -0.21875 C 12.117188 -0.0703125 12.28125 0 12.28125 0 L 2 0 C 2 0 2.207031 -0.0625 2.625 -0.1875 C 3.050781 -0.320312 3.601562 -0.632812 4.28125 -1.125 C 4.96875 -1.613281 5.703125 -2.351562 6.484375 -3.34375 C 7.265625 -4.332031 8.015625 -5.703125 8.734375 -7.453125 L 33.59375 -69.921875 L 38.078125 -69.921875 L 62.90625 -7.453125 C 63.613281 -5.703125 64.359375 -4.332031 65.140625 -3.34375 C 65.921875 -2.351562 66.648438 -1.613281 67.328125 -1.125 C 68.015625 -0.632812 68.566406 -0.320312 68.984375 -0.1875 C 69.410156 -0.0625 69.625 0 69.625 0 Z M 19.890625 -28.328125 L 48.515625 -28.328125 C 48.515625 -28.328125 48.316406 -28.820312 47.921875 -29.8125 C 47.535156 -30.800781 47 -32.140625 46.3125 -33.828125 C 45.632812 -35.523438 44.875 -37.429688 44.03125 -39.546875 C 43.1875 -41.660156 42.316406 -43.835938 41.421875 -46.078125 C 40.523438 -48.316406 39.644531 -50.5 38.78125 -52.625 C 37.925781 -54.757812 37.15625 -56.6875 36.46875 -58.40625 C 35.789062 -60.132812 35.238281 -61.519531 34.8125 -62.5625 C 34.394531 -63.601562 34.164062 -64.15625 34.125 -64.21875 C 34.09375 -64.15625 33.875 -63.601562 33.46875 -62.5625 C 33.0625 -61.519531 32.515625 -60.132812 31.828125 -58.40625 C 31.148438 -56.6875 30.390625 -54.757812 29.546875 -52.625 C 28.703125 -50.5 27.832031 -48.316406 26.9375 -46.078125 C 26.039062 -43.835938 25.175781 -41.660156 24.34375 -39.546875 C 23.519531 -37.429688 22.765625 -35.523438 22.078125 -33.828125 C 21.398438 -32.140625 20.863281 -30.800781 20.46875 -29.8125 C 20.082031 -28.820312 19.890625 -28.328125 19.890625 -28.328125 Z M 19.890625 -28.328125 "/></g></g></g></svg>